<?xml version="1.0" standalone="no"?>
<!DOCTYPE svg PUBLIC "-//W3C//DTD SVG 20010904//EN"
 "http://www.w3.org/TR/2001/REC-SVG-20010904/DTD/svg10.dtd">
<svg version="1.0" xmlns="http://www.w3.org/2000/svg"
 width="149.000000pt" height="149.000000pt" viewBox="0 0 149.000000 149.000000"
 preserveAspectRatio="xMidYMid meet">
<metadata>
Created by potrace 1.14, written by Peter Selinger 2001-2017
</metadata>
<g transform="translate(0.000000,149.000000) scale(0.100000,-0.100000)"
fill="#000000" stroke="none">
<path d="M728 1213 c-25 -6 -33 -74 -14 -112 14 -26 15 -57 10 -212 l-7 -181
-31 -13 c-17 -8 -40 -22 -50 -33 -16 -19 -17 -26 -5 -77 12 -52 11 -57 -9 -83
-61 -76 -72 -129 -40 -192 26 -52 72 -85 127 -95 112 -19 227 79 207 177 -3
16 -22 56 -42 89 -36 57 -36 60 -24 104 14 51 10 61 -18 46 -14 -7 -24 -7 -38
3 -17 13 -19 33 -22 221 -3 143 0 220 8 250 7 25 9 60 6 80 -7 35 -16 39 -58
28z"/>
<path d="M75 1158 c4 -13 19 -45 34 -73 25 -44 34 -52 83 -68 38 -13 69 -33
99 -63 l44 -45 -46 20 c-42 19 -180 41 -256 41 l-33 0 0 -71 c0 -62 2 -70 16
-65 31 12 168 46 183 46 62 0 151 -54 151 -92 0 -19 -1 -19 -20 4 -38 48 -115
41 -259 -23 l-71 -32 0 -59 0 -59 45 31 c163 112 232 106 302 -27 37 -70 49
-108 73 -221 l19 -87 0 433 1 432 -186 0 -185 0 6 -22z"/>
<path d="M1041 723 l1 -458 22 110 c28 137 40 175 79 248 69 131 135 140 286
37 l61 -41 0 59 0 59 -71 32 c-144 64 -221 71 -259 23 -19 -23 -20 -23 -20 -4
0 38 89 92 151 92 15 0 152 -34 183 -46 14 -5 16 3 16 65 l0 71 -32 0 c-77 0
-215 -22 -257 -41 l-46 -20 44 45 c32 33 60 50 97 61 50 14 54 18 83 77 17 34
31 67 31 75 0 10 -37 13 -185 13 l-185 0 1 -457z"/>
</g>
</svg>
